<svg id="flat-export" height="412" viewBox="0 0 512 512" width="412" xmlns="http://www.w3.org/2000/svg"><path d="m424 288-72-96v-40l29.6-4.32 82.4 148.32z" fill="#62798c"/><path d="m249.792 58.07 20.862 31.506 20.862-13.562-20.862-31.505z" fill="#ffbfa1"/><path d="m368 128v40h-50.66992l-53.33008-32-16.78 6.71-13.21 5.28a55.88008 55.88008 0 0 1 -20.79 4.01h-69.22l-.28-32 21.27-2.35 51.01-5.65 8.96-6.4 32.84009-23.46a54.45927 54.45927 0 0 1 70.14991 5.81z" fill="#ffceb6"/><path d="m164.99 117.65-21.27 2.35.28 32h24.54a39.34892 39.34892 0 0 0 1.85986-4.86 37.61748 37.61748 0 0 0 1.60014-10.86 28.03811 28.03811 0 0 0 -7.01-18.63z" fill="#ffbfa1"/><path d="m53 432h35l32.834-39.40083a30.91733 30.91733 0 0 0 7.166-19.79278 30.91731 30.91731 0 0 0 -9.05547-21.86184l-30.94453-30.94455h-42.77979v21.77617l42.77979 34.22383z" fill="#62798c"/><path d="m88 432 16 40-8 8-48-40 5-8z" fill="#e0edff"/><path d="m56 216a16 16 0 0 1 -16-16v-8l8-8h24v16a16 16 0 0 1 -16 16z" fill="#ffceb6"/><path d="m72 184 4.68629-4.6863a11.3137 11.3137 0 0 0 3.31371-8 11.31369 11.31369 0 0 0 -11.3137-11.3137h-12.6863a16 16 0 0 0 -16 16v16l8-8z" fill="#c47220"/><path d="m160 136.28a25.405 25.405 0 0 1 -4.28 14.14l-43.72 65.58-16 24-21.33008 64h-50.66992v-58.33a32.0096 32.0096 0 0 1 20.12012-29.72l19.87988-7.95 14.2-17.35 52.90991-64.68a16.287 16.287 0 0 1 28.89009 10.31z" fill="#ffceb6"/><path d="m112 216-16 24-21.33008 64h-50.66992v-58.33a32.0096 32.0096 0 0 1 20.12012-29.72l19.87988-7.95 14.2-17.35z" fill="#ffa100"/><path d="m168 360-48-40-49.73872 21.31659a33.18773 33.18773 0 0 1 -13.07335 2.68341 33.18788 33.18788 0 0 1 -33.18793-33.18789v-6.81211l81.62507-22.26138a49.34173 49.34173 0 0 1 12.9827-1.73862 49.34188 49.34188 0 0 1 40.15112 20.66248l25.24111 35.33752z" fill="#718799"/><path d="m168 360 16-24 40 8v16l-48 16z" fill="#e0edff"/><path d="m496 320h-112l-80-16h-56l-8 24-16 16v40l-16 32 24 32v48h264z" fill="#db8638"/><path d="m368 128v40h-50.66992l-53.33008-32-16.78 6.71-22.26-37.11 32.84009-23.46a54.45927 54.45927 0 0 1 70.14991 5.81z" fill="#ffa100"/><path d="m270.56385 73.35283a16 16 0 0 0 4.5068-22.174l-4.41682-6.67023-11.087-2.2534-20.01065 13.25039 8.83363 13.34041a16 16 0 0 0 22.17404 4.50683z" fill="#ffceb6"/><path d="m239.55618 55.50559-6.49464-1.32a11.31373 11.31373 0 0 1 -7.1797-4.84071 11.3137 11.3137 0 0 1 3.18679-15.67941l10.57755-7.00413a16 16 0 0 1 22.174 4.5068l8.83363 13.34043-11.087-2.2534z" fill="#c47220"/><path d="m288 280 8-72 62.97874-17.176a33.95555 33.95555 0 0 0 25.02126-32.75911 33.95556 33.95556 0 0 0 -9.94535-24.0102l-6.05465-6.05469-94.31084 47.15542a32 32 0 0 0 -17.68916 28.62167v68.22291z" fill="#718799"/><g fill="#e0edff"><path d="m256 272-32 24v8h64v-24z"/><path d="m424 288 40 8v24h-64v-8z"/></g></svg>