<?xml version="1.0" encoding="UTF-8"?>
<svg fill="#ffffff" width="50" height="50" enable-background="new 0 0 479.992 479.992" version="1.1" viewBox="0 0 479.99 479.99" xml:space="preserve" xmlns="http://www.w3.org/2000/svg">
		<path d="m269.68 149.3c6.609-7.274 10.286-16.74 10.32-26.568v-16c0-22.091-17.909-40-40-40s-40 17.909-40 40v16c0.034 9.828 3.711 19.294 10.32 26.568-15.759 5.718-26.271 20.668-26.32 37.432v32h16v-32c0-13.255 10.745-24 24-24h8v56h16v-56h8c13.255 0 24 10.745 24 24v32h16v-32c-0.049-16.764-10.561-31.714-26.32-37.432zm-5.68-26.568c0 13.255-10.745 24-24 24s-24-10.745-24-24v-16c0-13.255 10.745-24 24-24s24 10.745 24 24v16z"/>
		<path d="m214.65 398.29-14.656-21.96v-61.6c-0.026-22.08-17.92-39.974-40-40h-16v16h16c13.255 0 24 10.745 24 24v64c3e-3 1.58 0.47 3.124 1.344 4.44l7.712 11.56h-25.056v-80h-16v88c0 4.418 3.582 8 8 8h48c4.418 1e-3 8.001-3.581 8.001-7.999 0-1.58-0.468-3.126-1.345-4.441z"/>
		<path d="m136 122.73v-16c0-22.091-17.909-40-40-40s-40 17.909-40 40v16c-1e-3 10.702 4.303 20.954 11.944 28.448-14.605 6.752-24.863 20.364-27.328 36.264-6.986-5.601-15.662-8.672-24.616-8.712h-8c-4.418 1e-3 -7.999 3.584-7.998 8.002 0 0.331 0.021 0.661 0.062 0.99l13.936 111.5c1.535 12.052 10.976 21.569 23.016 23.2l-28.6 85.776 15.168 5.056 30.176-90.528h66.24v88h16v-96c-0.026-22.08-17.92-39.974-40-40h-32c-4.418 0-8-3.582-8-8v-72c0-17.673 14.327-32 32-32v88h16v-83.552c9.867 5.672 15.964 16.171 16 27.552v72h16v-72c-0.012-14.974-7.027-29.081-18.96-38.128 11.754-7.25 18.926-20.061 18.96-33.872zm-72 168h32c10.134 0.042 19.15 6.445 22.528 16h-77.904c-5.46-9e-3 -10.064-4.071-10.752-9.488l-12.808-102.51c12.838 0.57 22.949 11.15 22.936 24v48c0 13.255 10.745 24 24 24zm56-168c0 13.255-10.745 24-24 24s-24-10.745-24-24v-16c0-13.255 10.745-24 24-24s24 10.745 24 24v16z"/>
		<polygon points="152 234.73 152 250.73 232 250.73 232 410.73 248 410.73 248 250.73 328 250.73 328 234.73"/>
		<path d="m296 378.73v-64c0-13.255 10.745-24 24-24h16v-16h-16c-22.08 0.026-39.974 17.92-40 40v61.6l-14.656 21.984c-2.439 3.684-1.429 8.648 2.255 11.087 1.305 0.864 2.836 1.326 4.401 1.329h48c4.418 0 8-3.582 8-8v-88h-16v80h-25.056l7.712-11.56c0.874-1.316 1.341-2.86 1.344-4.44z"/>
		<path d="m466 299.2 13.936-111.5c0.53-4.386-2.596-8.372-6.982-8.902-0.316-0.038-0.635-0.058-0.954-0.058h-8c-8.954 0.04-17.63 3.111-24.616 8.712-2.465-15.9-12.723-29.512-27.328-36.264 7.641-7.494 11.945-17.746 11.944-28.448v-16c0-22.091-17.909-40-40-40s-40 17.909-40 40v16c0.034 13.811 7.205 26.622 18.96 33.872-11.933 9.047-18.948 23.154-18.96 38.128v72h16v-72c0.036-11.381 6.133-21.88 16-27.552v83.552h16v-88c17.673 0 32 14.327 32 32v72c0 4.418-3.582 8-8 8h-32c-22.08 0.026-39.974 17.92-40 40v96h16v-88h66.24l30.176 90.528 15.2-5.056-28.632-85.808c12.039-1.63 21.481-11.148 23.016-23.2zm-58-176.46c0 13.255-10.745 24-24 24s-24-10.745-24-24v-16c0-13.255 10.745-24 24-24s24 10.745 24 24v16zm31.376 184h-77.904c3.378-9.555 12.394-15.958 22.528-16h32c13.255 0 24-10.745 24-24v-48c-0.013-12.85 10.098-23.43 22.936-24l-12.8 102.49c-0.678 5.429-5.289 9.506-10.76 9.512z"/>
</svg>
